# AST/ASF file generated using VICON BodyLanguage
# -----------------------------------------------
:version 1.10
:name VICON
:units
  mass 1.0
  length 0.45
  angle deg
:documentation
   .ast/.asf automatically generated from VICON data using
   VICON BodyBuilder and BodyLanguage model FoxedUp or BRILLIANT.MOD
:root
   order TX TY TZ RX RY RZ
   axis XYZ
   position 0 0 0  
   orientation 0 0 0 
:bonedata
  begin
     id 1 
     name lhipjoint
     direction 0.535335 -0.74333 0.401095 
     length 2.04549 
     axis 0 0 0  XYZ
  end
  begin
     id 2 
     name lfemur
     direction 0.34202 -0.939693 0  
     length 6.95643  
     axis 0 0 20  XYZ
    dof rx ry rz
    limits (-160.0 20.0)
           (-70.0 70.0)
           (-60.0 70.0)
  end
  begin
     id 3 
     name ltibia
     direction 0.34192 -0.939729 0   
     length 5.55969   
     axis 0 0 20   XYZ
    dof rx
    limits (-10.0 170.0)
  end
  begin
     id 4 
     name lfoot
     direction 0.216943 -0.596046 0.773088   
     length 2.27918   
     axis -90 7.62852e-016 20   XYZ
    dof rx rz
    limits (-45.0 90.0)
           (-70.0 20.0)
  end
  begin
     id 5 
     name ltoes
     direction 1.53519e-011 -4.21748e-011 1   
     length 1.05562   
     axis -90 7.62852e-016 20   XYZ
    dof rx
    limits (-90.0 20.0)
  end
  begin
     id 6 
     name rhipjoint
     direction -0.576368 -0.719173 0.38806   
     length 2.1142  
     axis 0 0 0  XYZ 
  end
  begin
     id 7 
     name rfemur
     direction -0.34202 -0.939693 0   
     length 7.07928   
     axis 0 0 -20   XYZ
    dof rx ry rz
    limits (-160.0 20.0)
           (-70.0 70.0)
           (-70.0 60.0)
  end
  begin
     id 8 
     name rtibia
     direction -0.34202 -0.939693 0   
     length 5.79974   
     axis 0 0 -20   XYZ
    dof rx
    limits (-10.0 170.0)
 end
 begin
     id 9 
     name rfoot
     direction -0.189288 -0.520065 0.832888   
     length 2.42173  
     axis -90 -7.62852e-016 -20   XYZ
    dof rx rz
    limits (-45.0 90.0)
           (-20.0 70.0)
  end
  begin
     id 10 
     name rtoes
     direction -1.53574e-011 -4.21658e-011 1   
     length 1.14469   
     axis -90 -7.62852e-016 -20   XYZ
    dof rx
    limits (-90.0 20.0)
  end
  begin
     id 11 
     name lowerback
     direction -0.00135702 0.993803 0.111144   
     length 1.91308   
     axis 0 0 0   XYZ
    dof rx ry rz
    limits (-20.0 45.0)
           (-30.0 30.0)
           (-30.0 30.0)
  end
  begin
     id 12 
     name upperback
     direction -0.0056745 0.999813 0.0184631   
     length 1.9212   
     axis 0 0 0   XYZ
    dof rx ry rz
    limits (-20.0 45.0)
           (-30.0 30.0)
           (-30.0 30.0)
  end
  begin
     id 13 
     name thorax
     direction -0.00733434 0.999426 -0.0330788   
     length 1.94196   
     axis 0 0 0   XYZ
    dof rx ry rz
    limits (-20.0 45.0)
           (-30.0 30.0)
           (-30.0 30.0)
  end
  begin
     id 14 
     name lowerneck
     direction 0.0563074 0.996944 -0.0541571   
     length 2.34257   
     axis 0 0 0   XYZ
    dof rx ry rz
    limits (-20.0 45.0)
           (-30.0 30.0)
           (-30.0 30.0)
  end
  begin
     id 15 
     name upperneck
     direction -0.0544519 0.976166 -0.210085   
     length 2.32506   
     axis 0 0 0   XYZ
    dof rx ry rz
    limits (-20.0 45.0)
           (-30.0 30.0)
           (-30.0 30.0)
  end
  begin
     id 16
     name head
     direction -0.0226035 0.997615 -0.0652205  
     length 2.3648  
     axis 0 0 0   XYZ
    dof rx ry rz
    limits (-20.0 45.0)
           (-30.0 30.0)
           (-30.0 30.0)
  end
  begin
     id 17 
     name lclavicle
     direction 0.92109 0.381297 -0.0787716  
     length 4.0487  
     axis 0 0 0   XYZ
    dof ry rz
    limits (-20.0 10.0)
           (0.0 20.0)
  end
  begin
     id 18 
     name lhumerus
     direction 1 -4.48986e-011 3.56724e-027   
     length 4.94991   
     axis 180 -30 -90   XYZ
    dof rx ry rz
    limits (-60.0 90.0)
           (-90.0 90.0)
           (-90.0 90.0)
  end
  begin
     id 19
     name lradius
     direction 1 -4.48981e-011 8.62147e-027   
     length 2.7606   
     axis 180 -30 -90   XYZ
    dof rx
    limits (-10.0 170.0)
  end
  begin
     id 20
     name lwrist
     direction 1 -4.48989e-011 1.59799e-026   
     length 1.3803   
     axis -1.17785e-014 90 90   XYZ
    dof ry
    limits (-180.0 0.0)
 end
  begin
     id 21 
     name lhand
     direction 1 -4.48896e-011 3.19599e-026   
     length 0.843936   
     axis -2.03931e-014 90 90   XYZ
    dof rx rz
    limits (-90.0 90.0)
           (-45.0 45.0)
  end
  begin
     id 22 
     name lfingers
     direction 1 -4.48887e-011 6.39197e-026   
     length 0.680403   
     axis -4.07862e-014 90 90   XYZ
    dof rx
    limits (0.0 90.0)
  end
  begin
     id 23
     name lthumb
     direction 0.707107 -6.348e-011 0.707107   
     length 0.976926   
     axis -90 45 2.85299e-015   XYZ
    dof rx rz
    limits (-45.0 45.0)
           (-45.0 45.0)
  end
  begin
     id 24 
     name rclavicle
     direction -0.951104 0.307692 -0.026953   
     length 4.21801  
     axis 0 0 0   XYZ 
    dof ry rz
    limits (-10.0 20.0)
           (-20.0 0.0)
  end
  begin
     id 25 
     name rhumerus
     direction -1 -4.4896e-011 -1.8171e-018  
     length 4.32982   
     axis 180 30 90   XYZ
    dof rx ry rz
    limits (-90.0 60.0)
           (-90.0 90.0)
           (-90.0 90.0)
  end
  begin
     id 26 
     name rradius
     direction -1 -4.48959e-011 8.25165e-027   
     length 3.20057   
     axis 180 30 90   XYZ
    dof rx
    limits (-10.0 170.0)
  end
  begin
     id 27 
     name rwrist
     direction -1 -4.48997e-011 1.59799e-026   
     length 1.60029   
     axis -1.17785e-014 -90 -90   XYZ
    dof ry
    limits (-180.0 0.0)
  end
  begin
     id 28
     name rhand
     direction -1 -4.49023e-011 3.19599e-026   
     length 0.960433   
     axis -2.03931e-014 -90 -90   XYZ
    dof rx rz
    limits (-90.0 90.0)
           (-45.0 45.0)
  end
  begin
     id 29
     name rfingers
     direction -1 -4.48802e-011 6.39197e-026   
     length 0.774326   
     axis -4.07862e-014 -90 -90   XYZ
    dof rx
    limits (0.0 90.0)
  end
  begin
     id 30
     name rthumb
     direction -0.707107 -6.34876e-011 0.707107   
     length 1.11178   
     axis -90 -45 -2.85299e-015   XYZ
    dof rx rz
    limits (-45.0 45.0)
           (-45.0 45.0)
  end
:hierarchy
  begin
    root lhipjoint rhipjoint lowerback
    lhipjoint lfemur
    lfemur ltibia
    ltibia lfoot
    lfoot ltoes
    rhipjoint rfemur
    rfemur rtibia
    rtibia rfoot
    rfoot rtoes
    lowerback upperback
    upperback thorax
    thorax lowerneck lclavicle rclavicle
    lowerneck upperneck
    upperneck head
    lclavicle lhumerus
    lhumerus lradius
    lradius lwrist
    lwrist lhand lthumb
    lhand lfingers
    rclavicle rhumerus
    rhumerus rradius
    rradius rwrist
    rwrist rhand rthumb
    rhand rfingers
end

#!OML:ASF C:\KaitlinTest1\Natural Motions\Nikki\Session 2\Nikki.ASF
:FULLY-SPECIFIED
:DEGREES
552
root -12.2879 16.522 4.07647 30.8591 92.0859 24.4837
lowerback -9.72146 -1.86125 0.687611
upperback -4.63279 -2.35616 -0.506629
thorax 0.588934 -1.12243 -1.14281
lowerneck -6.42773 -11.7109 -10.0552
upperneck 5.89587 41.2689 5.35528
head 164.013 63.0061 -40.412
rclavicle 1.27222e-014 4.17448e-015
rhumerus -39.5391 -24.9129 -81.4626
rradius 15.3757
rwrist 24.7298
rhand -36.1721 1.27397
rfingers 7.12502
rthumb -9.27582 -28.502
lclavicle 1.27222e-014 4.17448e-015
lhumerus -38.8116 19.2133 82.0804
lradius 18.5339
lwrist -33.9188
lhand -34.3934 3.53057
lfingers 7.12502
lthumb -7.55926 33.3755
rfemur -6.8045 -20.8086 20.7497
rtibia 16.6492
rfoot -12.7667 8.7115
rtoes 5.56597e-014
lfemur -10.6189 16.0723 -17.491
ltibia 20.215
lfoot -8.13985 -19.8048
ltoes 3.97569e-014
553
root -12.2894 16.5223 4.07493 31.3238 92.0893 24.9536
lowerback -9.70887 -1.85121 0.713738
upperback -4.64818 -2.3447 -0.495042
thorax 0.565766 -1.11695 -1.14362
lowerneck -6.38184 -11.7073 -10.0736
upperneck 5.9212 41.2954 5.3617
head 163.967 63.0368 -40.4535
rclavicle -1.23992e-014 -9.93923e-015
rhumerus -39.551 -24.7693 -81.5449
rradius 15.4112
rwrist 24.5938
rhand -36.1861 1.34768
rfingers 7.12502
rthumb -9.28933 -28.4277
lclavicle -1.23992e-014 -9.93923e-015
lhumerus -38.8054 19.1217 82.1603
lradius 18.527
lwrist -33.8704
lhand -34.4509 3.42739
lfingers 7.12502
lthumb -7.61479 33.2703
rfemur -6.81075 -20.848 20.7635
rtibia 16.6441
rfoot -12.7622 8.76191
rtoes 7.95139e-015
lfemur -10.6206 16.0561 -17.477
ltibia 20.2291
lfoot -8.11696 -19.7916
ltoes 1.59028e-015
554
root -12.2906 16.5215 4.07334 31.5881 92.0828 25.2192
lowerback -9.71543 -1.84984 0.734313
upperback -4.65663 -2.34431 -0.490358
thorax 0.559927 -1.1169 -1.15033
lowerneck -6.31769 -11.6367 -10.1468
upperneck 5.9464 41.3743 5.39908
head 164.261 63.0358 -40.2624
rclavicle -1.37907e-014 -5.36719e-015
rhumerus -39.5324 -24.5347 -81.721
rradius 15.4827
rwrist 24.2415
rhand -36.2164 1.41944
rfingers 7.12502
rthumb -9.31859 -28.3546
lclavicle -1.37907e-014 -5.36719e-015
lhumerus -38.8006 19.0884 82.2039
lradius 18.5388
lwrist -33.8375
lhand -34.4397 3.51667
lfingers 7.12502
lthumb -7.60398 33.36
rfemur -6.83028 -20.8522 20.7687
rtibia 16.6859
rfoot -12.8143 8.75038
rtoes 4.77083e-015
lfemur -10.6214 16.1292 -17.4799
ltibia 20.215
lfoot -8.11327 -19.8527
ltoes 3.97569e-014
555
root -12.2912 16.5214 4.07139 31.2408 92.0663 24.8821
lowerback -9.71099 -1.85018 0.715388
upperback -4.6598 -2.34318 -0.482336
thorax 0.5554 -1.11599 -1.13113
lowerneck -6.27371 -11.6291 -10.1692
upperneck 5.94935 41.3361 5.38508
head 164.178 63.1246 -40.3168
rclavicle -8.94531e-016 5.1684e-015
rhumerus -39.5285 -24.5698 -81.697
rradius 15.4543
rwrist 24.3805
rhand -36.2334 1.57458
rfingers 7.12502
rthumb -9.33502 -28.1987
lclavicle -8.94531e-016 5.1684e-015
lhumerus -38.8088 19.1278 82.2067
lradius 18.5351
lwrist -33.9374
lhand -34.4883 3.39865
lfingers 7.12502
lthumb -7.65092 33.2403
rfemur -6.82792 -20.8674 20.7351
rtibia 16.6957
rfoot -12.8208 8.77909
rtoes 1.59028e-015
lfemur -10.6104 16.1471 -17.5072
ltibia 20.2135
lfoot -8.11553 -19.8609
ltoes -1.59028e-015
556
root -12.2944 16.5212 4.0704 31.5786 92.0772 25.2388
lowerback -9.68513 -1.85614 0.738847
upperback -4.63399 -2.35432 -0.495116
thorax 0.566188 -1.12249 -1.15817
lowerneck -6.28213 -11.6189 -10.1358
upperneck 5.93385 41.2879 5.39083
head 164.15 63.2506 -40.3581
rclavicle -3.15571e-015 -2.5842e-015
rhumerus -39.4467 -24.4504 -81.8966
rradius 15.514
rwrist 24.2433
rhand -36.2295 1.53537
rfingers 7.12502
rthumb -9.33125 -28.2381
lclavicle -3.15571e-015 -2.5842e-015
lhumerus -38.7352 19.0258 82.2632
lradius 18.5504
lwrist -33.7823
lhand -34.5229 3.40812
lfingers 7.12502
lthumb -7.68427 33.2485
rfemur -6.8322 -20.8149 20.7507
rtibia 16.7117
rfoot -12.7956 8.72001
rtoes 3.26007e-014
lfemur -10.5895 16.1407 -17.4876
ltibia 20.2122
lfoot -8.10602 -19.8472
ltoes 3.18055e-015
557
root -12.2961 16.5223 4.06952 32.1489 92.0929 25.815
lowerback -9.71258 -1.83606 0.775332
upperback -4.62091 -2.33146 -0.483819
thorax 0.594282 -1.11139 -1.16594
lowerneck -6.24907 -11.6251 -10.1671
upperneck 5.95096 41.3101 5.3906
head 164.147 63.2293 -40.3584
rclavicle -3.51849e-014 -1.86858e-014
rhumerus -39.4294 -24.3873 -81.9538
rradius 15.5667
rwrist 24.1495
rhand -36.167 1.49337
rfingers 7.12502
rthumb -9.27093 -28.2828
lclavicle -3.51849e-014 -1.86858e-014
lhumerus -38.7672 19.277 82.1579
lradius 18.5114
lwrist -34.1106
lhand -34.5863 3.24537
lfingers 7.12502
lthumb -7.7455 33.0835
rfemur -6.8359 -20.7821 20.7759
rtibia 16.7164
rfoot -12.7978 8.69562
rtoes -4.53229e-014
lfemur -10.6037 16.1453 -17.466
ltibia 20.2101
lfoot -8.08241 -19.861
ltoes 7.95139e-015
558
root -12.2983 16.5217 4.06806 31.4876 92.0807 25.1751
lowerback -9.67071 -1.84759 0.741768
upperback -4.61809 -2.34408 -0.494744
thorax 0.574958 -1.11768 -1.15825
lowerneck -6.24474 -11.6291 -10.1251
upperneck 5.95882 41.2967 5.39645
head 163.998 63.3432 -40.4898
rclavicle 3.9906e-014 1.2921e-014
rhumerus -39.4123 -24.3655 -82.0174
rradius 15.5722
rwrist 24.1714
rhand -36.1482 1.6154
rfingers 7.12502
rthumb -9.25283 -28.1616
lclavicle 3.9906e-014 1.2921e-014
lhumerus -38.761 19.2707 82.1525
lradius 18.5026
lwrist -34.1836
lhand -34.5044 3.31015
lfingers 7.12502
lthumb -7.66648 33.1512
rfemur -6.82367 -20.7331 20.7343
rtibia 16.7363
rfoot -12.7832 8.64236
rtoes 2.54444e-014
lfemur -10.5762 16.1609 -17.4933
ltibia 20.1987
lfoot -8.09939 -19.8815
ltoes 3.18055e-014
559
root -12.3002 16.5213 4.06705 31.7793 92.093 25.4792
lowerback -9.65902 -1.85549 0.754325
upperback -4.60721 -2.35643 -0.48592
thorax 0.579386 -1.12415 -1.15721
lowerneck -6.23733 -11.6073 -10.1294
upperneck 5.96863 41.3234 5.4086
head 164.004 63.4044 -40.5089
rclavicle 2.40281e-014 4.57205e-015
rhumerus -39.3598 -24.2479 -82.1446
rradius 15.5974
rwrist 24.1283
rhand -36.171 1.59707
rfingers 7.12502
rthumb -9.27476 -28.1789
lclavicle 2.40281e-014 4.57205e-015
lhumerus -38.7697 18.8959 82.4128
lradius 18.7087
lwrist -33.7248
lhand -34.4265 3.42694
lfingers 7.12502
lthumb -7.59122 33.2707
rfemur -6.79574 -20.7043 20.7441
rtibia 16.711
rfoot -12.7706 8.60186
rtoes -1.82882e-014
lfemur -10.5797 16.1325 -17.4755
ltibia 20.2167
lfoot -8.08939 -19.8706
ltoes -4.92986e-014
560
root -12.3022 16.5213 4.06502 31.1915 92.0813 24.8946
lowerback -9.63692 -1.86082 0.740652
upperback -4.61535 -2.36197 -0.493071
thorax 0.559 -1.1269 -1.15653
lowerneck -6.22309 -11.6108 -10.117
upperneck 5.9901 41.3515 5.41235
head 163.878 63.4467 -40.6142
rclavicle 1.29955e-014 1.39149e-015
rhumerus -39.3198 -24.1106 -82.2829
rradius 15.6118
rwrist 23.9994
rhand -36.2538 1.61718
rfingers 7.12502
rthumb -9.35468 -28.1553
lclavicle 1.29955e-014 1.39149e-015
lhumerus -38.7704 18.8597 82.4546
lradius 18.6984
lwrist -33.6651
lhand -34.4257 3.43096
lfingers 7.12502
lthumb -7.59045 33.2748
rfemur -6.80394 -20.7695 20.7056
rtibia 16.7028
rfoot -12.7541 8.67142
rtoes -3.97569e-014
lfemur -10.5826 16.1092 -17.5136
ltibia 20.2329
lfoot -8.0837 -19.8413
ltoes -2.54444e-014
561
root -12.3032 16.5217 4.06383 31.6497 92.0871 25.372
lowerback -9.62545 -1.86156 0.749683
upperback -4.60846 -2.36442 -0.478295
thorax 0.560063 -1.12829 -1.14633
lowerneck -6.21703 -11.638 -10.0904
upperneck 6.00493 41.3439 5.39686
head 163.615 63.5105 -40.8093
rclavicle -9.39258e-015 -4.57205e-015
rhumerus -39.2901 -23.9079 -82.4562
rradius 15.7301
rwrist 23.706
rhand -36.199 1.55673
rfingers 7.12502
rthumb -9.3018 -28.2181
lclavicle -9.39258e-015 -4.57205e-015
lhumerus -38.4584 16.568 83.8805
lradius 18.7972
lwrist -31.0959
lhand -34.5981 3.83833
lfingers 7.12502
lthumb -7.75684 33.6761
rfemur -6.77836 -20.7522 20.7135
rtibia 16.6875
rfoot -12.7356 8.6519
rtoes 3.57812e-014
lfemur -10.5757 16.1083 -17.4988
ltibia 20.2431
lfoot -8.09181 -19.8204
ltoes 2.22639e-014
562
root -12.3052 16.52 4.0622 31.5002 92.1076 25.2381
lowerback -9.60584 -1.91447 0.750378
upperback -4.56283 -2.4365 -0.503996
thorax 0.593639 -1.16514 -1.18048
lowerneck -6.31531 -11.6438 -9.94111
upperneck 5.97616 41.2804 5.40124
head 163.304 63.7478 -41.0897
rclavicle -1.89094e-014 -7.35503e-015
rhumerus -39.1165 -23.7293 -82.7929
rradius 15.7909
rwrist 23.5174
rhand -36.1434 1.39227
rfingers 7.12502
rthumb -9.24816 -28.3849
lclavicle -1.89094e-014 -7.35503e-015
lhumerus -38.4028 16.6146 83.7932
lradius 18.8093
lwrist -31.1362
lhand -34.5731 3.86141
lfingers 7.12502
lthumb -7.73279 33.7
rfemur -6.74824 -20.7103 20.7111
rtibia 16.6796
rfoot -12.7375 8.58572
rtoes -7.95139e-016
lfemur -10.5728 16.0729 -17.4943
ltibia 20.2561
lfoot -8.08701 -19.8197
ltoes 9.54166e-015
563
root -12.306 16.5211 4.06041 31.5794 92.1022 25.3326
lowerback -9.61068 -1.91504 0.749823
upperback -4.5443 -2.43825 -0.494451
thorax 0.615904 -1.16605 -1.17107
lowerneck -6.30251 -11.6396 -9.94764
upperneck 5.97363 41.2487 5.38758
head 163.182 63.8568 -41.1887
rclavicle -1.79403e-014 3.97569e-016
rhumerus -39.0548 -23.5755 -82.9252
rradius 15.8387
rwrist 23.3514
rhand -36.081 1.30376
rfingers 7.12502
rthumb -9.18792 -28.4761
lclavicle -1.79403e-014 3.97569e-016
lhumerus -38.4002 16.6781 83.8101
lradius 18.7937
lwrist -31.1515
lhand -34.6199 3.7746
lfingers 7.12502
lthumb -7.77791 33.6115
rfemur -6.73249 -20.6957 20.7011
rtibia 16.6529
rfoot -12.7259 8.58641
rtoes 1.03368e-014
lfemur -10.5669 16.0619 -17.4987
ltibia 20.2802
lfoot -8.09611 -19.8036
ltoes 1.59028e-014
